# xmcd
#
# Track frame offsets: 
#        150
#        16994
#        30332
#        42016
#        52666
#        68282
#        81742
#        89942
#        101645
#        112513
#        124357
#        138424
#        146879
#        160143
#        172046
#        183337
#        200083
#        210215
#        222890
#        232522
#        245337
#        255498
#        267608
#        277921
#        285092
#        296117
#        306913
#        319999
#        332093
#
# Disc length: 4647 seconds
#
# Revision: 0
# Processed by: cddbd v1.5.2PL0 Copyright (c) Steve Scherf et al.
# Submitted via: ExactAudioCopy v0.99pb5
#
DISCID=a012251d
DTITLE=The Rolling Stones - Early Years
DYEAR=1965
DGENRE=Classic Rock
TTITLE0=I Can't Get No) Satisfaction (Out Of Our Heads, 1965)
TTITLE1=Can I Get A Witness (England's Newest Hit Makers, 1964)
TTITLE2=Carol (England's Newest Hit Makers, 1964)
TTITLE3=Route 66 (England's Newest Hit Makers, 1964)
TTITLE4=It's All Over Now (12 x 5, 1964)
TTITLE5=Everybody Needs Somebody To Love (The Rolling Stones, Now!, 19
TTITLE5=65)
TTITLE6=Not Fade Away (England's Newest Hit Makers, 1964)
TTITLE7=Off The Hook (The Rolling Stones, Now!, 1965)
TTITLE8=I'm Free (December's Children (And Everybody's), 1965)
TTITLE9=I'm A King Bee (England's Newest Hit Makers, 1964)
TTITLE10=Little Red Rooster (The Rolling Stones, Now!, 1965)
TTITLE11=Susie Q (12 x 5, 1964)
TTITLE12=Get Off Of My Cloud (December's Children (And Everybody's), 1
TTITLE12=965)
TTITLE13=Empty Heart (12 x 5, 1964)
TTITLE14=Blue Turns To Grey (December's Children (And Everybody's), 19
TTITLE14=65)
TTITLE15=The Last Time (Out Of Our Heads, 1965)
TTITLE16=Play With Fire (Out Of Our Heads, 1965)
TTITLE17=Confessin' the Blues (12 x 5, 1964)
TTITLE18=Gotta Get Away (December's Children (And Everybody's), 1965)
TTITLE19=Heart Of Stone (The Rolling Stones, Now!, 1965)
TTITLE20=I'm Moving On (December's Children (And Everybody's), 1965)
TTITLE21=Little By Little (England's Newest Hit Makers, 1964)
TTITLE22=Look What You've Done (December's Children (And Everybody's),
TTITLE22=1965)
TTITLE23=She Said Yeah (December's Children (And Everybody's), 1965)
TTITLE24=That's How Strong My Love Is (Out Of Our Heads, 1965)
TTITLE25=The Singer Not The Song (December's Children (And Everybody's
TTITLE25=), 1965)
TTITLE26=Time Is on My Side (12 x 5, 1964)
TTITLE27=You Better Move On (December's Children (And Everybody's), 19
TTITLE27=65)
TTITLE28=You Can't Catch Me (The Rolling Stones, Now!, 1965)
EXTD=
EXTT0=
EXTT1=
EXTT2=
EXTT3=
EXTT4=
EXTT5=
EXTT6=
EXTT7=
EXTT8=
EXTT9=
EXTT10=
EXTT11=
EXTT12=
EXTT13=
EXTT14=
EXTT15=
EXTT16=
EXTT17=
EXTT18=
EXTT19=
EXTT20=
EXTT21=
EXTT22=
EXTT23=
EXTT24=
EXTT25=
EXTT26=
EXTT27=
EXTT28=
PLAYORDER=
